<svg 
          width="34.272727966308594" 
          height="27.846590042114258" fill="none" 
          xmlns="http://www.w3.org/2000/svg">
          <path d="M 13.923295736312866 0 C 13.071137054934567 9.512592437554725e-16 12.253880166107436 0.33851880288232483 11.651312982573927 0.9410859554612635 C 11.048745799040418 1.543653108040202 10.710227489471436 2.3609094441804883 10.710227489471436 3.2130680817824144 L 10.710227489471436 4.284090775709886 L 3.2130682468414307 4.284090775709886 C 2.360909565463132 4.284090775709886 1.5436530596635833 4.62260957859221 0.9410858761300744 5.225176731171149 C 0.33851869259656553 5.827743883750087 8.918055868338356e-16 6.645000219890374 0 7.4971588574923 L 4.161759405224566e-16 24.63352196033184 C 1.129620409989525e-15 25.485680597933765 0.33851869259656553 26.302937444777474 0.9410858761300744 26.905504597356412 C 1.5436530596635833 27.50807174993535 2.360909565463132 27.846590042114258 3.2130682468414307 27.846590042114258 L 31.059659719467163 27.846590042114258 C 31.911818400845462 27.84659004211425 32.72907528967259 27.50807174993535 33.3316424732061 26.905504597356412 C 33.93420965673961 26.302937444777474 34.27272796630859 25.485680597933765 34.272727966308594 24.63352196033184 L 34.272727966308594 7.4971588574923 C 34.27272796630859 6.645000219890374 33.93420965673961 5.827743883750087 33.3316424732061 5.225176731171149 C 32.72907528967259 4.62260957859221 31.911818400845462 4.284090775709886 31.059659719467163 4.284090775709886 L 23.562500476837158 4.284090775709886 L 23.562500476837158 3.2130680817824144 C 23.562500476837155 2.3609094441804883 23.223982167268176 1.543653108040202 22.621414983734667 0.9410859554612635 C 22.018847800201158 0.33851880288232483 21.201590911374026 4.756296218777362e-16 20.349432229995728 0 L 13.923295736312866 0 Z M 13.923295736312866 2.142045387854943 L 20.349432229995728 2.142045387854943 C 20.63348513442815 2.142045387854943 20.905904772988624 2.254885164370018 21.1067604955133 2.4557408765765034 C 21.307616218037975 2.656596588782989 21.42045497894287 2.929015191942118 21.42045497894287 3.2130680817824144 L 21.42045497894287 4.284090775709886 L 12.852272987365723 4.284090775709886 L 12.852272987365723 3.2130680817824144 C 12.852272987365723 2.929015191942118 12.965112769677507 2.656596588782989 13.165968492202182 2.4557408765765034 C 13.366824214726858 2.254885164370018 13.639242831880445 2.142045387854942 13.923295736312866 2.142045387854943 L 13.923295736312866 2.142045387854943 Z M 17.963192858956063 16.952146251618473 L 32.13068246841431 13.175721229723282 L 32.13068246841431 24.63352196033184 C 32.13068246841431 24.917574850172137 32.017843707509414 25.189994474738103 31.816987984984735 25.39085018694459 C 31.61613226246006 25.591705899151076 31.343712623899584 25.704544654259315 31.059659719467163 25.704544654259315 L 3.2130682468414307 25.704544654259315 C 2.9290153424090093 25.704544654259315 2.6565964699037004 25.591705899151076 2.455740747379025 25.39085018694459 C 2.2548850248543495 25.189994474738103 2.142045497894288 24.917574850172137 2.142045497894287 24.63352196033184 L 2.142045497894287 13.173579339589265 L 16.309534085945643 16.952146251618473 C 16.851313004597515 17.09642287175668 17.42141394030419 17.09642287175668 17.963192858956063 16.952146251618473 L 17.963192858956063 16.952146251618473 Z M 3.2130682468414307 6.426136163564829 L 31.059659719467163 6.426136163564829 C 31.343712623899584 6.426136163564828 31.61613226246006 6.5389759400799035 31.816987984984735 6.739831652286389 C 32.017843707509414 6.940687364492875 32.13068246841431 7.2131059676520035 32.13068246841431 7.4971588574923 L 32.13068246841431 10.958704580143603 L 17.412687231367272 14.882931256761086 C 17.231643339261247 14.931277338930627 17.04108360564046 14.931277338930627 16.860039713534434 14.882931256761086 L 2.142045497894287 10.958704580143603 L 2.142045497894287 7.4971588574923 C 2.142045497894287 7.2131059676520035 2.2548850248543495 6.940687364492875 2.455740747379025 6.739831652286389 C 2.6565964699037004 6.5389759400799035 2.9290153424090093 6.426136163564828 3.2130682468414307 6.426136163564829 L 3.2130682468414307 6.426136163564829 Z" fill="rgb(0,209.52499777078629,46.09550513327122)"/>
        </svg>