<svg 
          width="12" 
          height="15.999741554260254" fill="none" 
          xmlns="http://www.w3.org/2000/svg">
          <path d="M 0 2 C -2.220446049250313e-16 1.4695670008659363 0.21071359515190125 0.9608592092990875 0.5857863426208496 0.5857864618301392 C 0.960859090089798 0.2107137143611908 1.4695670008659363 6.106226635438361e-16 2 1.1102230246251565e-16 L 10 0 C 10.530432999134064 2.7755575615628914e-16 11.039140433073044 0.2107137143611908 11.414213180541992 0.5857864618301392 C 11.78928592801094 0.9608592092990875 12 1.4695670008659363 12 2 L 12 15.5 C 11.999953279584588 15.590442173182964 11.975376445800066 15.679178014397621 11.928886413574219 15.756756782531738 C 11.882396381348372 15.834335550665855 11.815734662115574 15.897851511836052 11.736001014709473 15.940540313720703 C 11.656267367303371 15.983229115605354 11.56644742935896 16.003491898998618 11.47610855102539 15.999170303344727 C 11.385769672691822 15.994848707690835 11.298294194042683 15.966105349361897 11.222999572753906 15.916000366210938 L 6 13.10099983215332 L 0.7769999504089355 15.916000366210938 C 0.7017053291201591 15.966105349361897 0.614230327308178 15.994848707690835 0.5238914489746094 15.999170303344727 C 0.4335525706410408 16.003491898998618 0.3437331095337868 15.983229115605354 0.26399946212768555 15.940540313720703 C 0.18426581472158432 15.897851511836052 0.1176040954887867 15.834335550665855 0.07111406326293945 15.756756782531738 C 0.02462403103709221 15.679178014397621 0.000046720415411982685 15.590442173182964 0 15.5 L 0 2 Z M 2 1 C 1.7347835004329681 1.0000000000000002 1.480429545044899 1.1053567975759506 1.2928931713104248 1.2928931713104248 C 1.1053567975759506 1.480429545044899 1.0000000000000009 1.7347835004329681 1 2 L 1 14.565999984741211 L 5.7230000495910645 12.083999633789062 C 5.805060558021069 12.029392294585705 5.901430793106556 12.000258445739746 6 12.000258445739746 C 6.098569206893444 12.000258445739744 6.19493991881609 12.029392294585705 6.277000427246094 12.083999633789062 L 11 14.565999984741211 L 11 2 C 11 1.7347835004329681 10.89464296400547 1.480429545044899 10.707106590270996 1.2928931713104248 C 10.519570216536522 1.1053567975759506 10.265216499567032 1.0000000000000002 10 1 L 2 1 Z" fill="rgb(89.24998328089714,89.24998328089714,89.24998328089714)"/>
        </svg>