<svg 
          width="29.4749755859375" 
          height="28.856794357299805" fill="none" 
          xmlns="http://www.w3.org/2000/svg">
          <path d="M 29.4749755859375 26.06755003410799 L 29.138683758645104 25.77082283782262 C 28.18463565156157 24.920795898402154 27.349571615277746 23.945997791468848 26.65606157267109 22.872779548817107 C 25.898636252927513 21.391659629548332 25.444664340978736 19.77417631018451 25.32078542154487 18.11524193089589 L 25.32078542154487 13.229121144450977 C 25.327332166908047 10.62346623288773 24.382153220994113 8.105099187836625 22.662833356670195 6.1471873172025555 C 20.943513492346277 4.1892754465684865 18.56839904927433 2.9265887564266837 15.983745408250188 2.5963695704062664 L 15.983745408250188 1.3204393013427171 C 15.983745408250188 0.9702369999706284 15.844627386969385 0.6343782514587427 15.59699697835455 0.3867478418704734 C 15.349366569739715 0.1391174322822041 15.013508294184462 0 14.663305994189015 0 C 14.313103694193568 0 13.977245418638315 0.1391174322822041 13.72961501002348 0.3867478418704734 C 13.481984601408644 0.6343782514587427 13.34286752340059 0.9702369999706284 13.34286752340059 1.3204393013427171 L 13.34286752340059 2.6161514149343827 C 10.781369813449073 2.9701751205675824 8.434957981030573 4.2404952749359035 6.738225490129969 6.191828643485255 C 5.041492999229366 8.143162012034606 4.109415099896008 10.643279677053052 4.114627418764672 13.229121144450977 L 4.114627418764672 18.11524193089589 C 3.9907484993308038 19.77417631018451 3.5367772948365874 21.391659629548332 2.779351975093014 22.872779548817107 C 2.097750102439276 23.943323613215636 1.2761228095977146 24.91796678759935 0.3362918272923961 25.77082283782262 L 0 26.06755003410799 L 0 28.856794357299805 L 29.4749755859375 28.856794357299805 L 29.4749755859375 26.06755003410799 Z" fill="rgb(0,0,0)"/>
        </svg>